<svg width="42" height="42" viewBox="0 0 42 42" fill="none" xmlns="http://www.w3.org/2000/svg">
<path d="M25.25 5.25V4.5H24.5H17.5H16.75V5.25V6C16.75 6.01143 16.75 6.02291 16.75 6.03445C16.7499 6.23956 16.7498 6.46136 16.775 6.64858C16.8045 6.8679 16.8803 7.14809 17.1161 7.38389C17.3519 7.61969 17.6321 7.69552 17.8514 7.72501C18.0386 7.75018 18.2604 7.75009 18.4656 7.75001C18.4771 7.75001 18.4886 7.75 18.5 7.75H23.5C23.5114 7.75 23.5229 7.75001 23.5344 7.75001C23.7396 7.75009 23.9614 7.75018 24.1486 7.72501C24.3679 7.69552 24.6481 7.61969 24.8839 7.38389C25.1197 7.14809 25.1955 6.8679 25.225 6.64858C25.2502 6.46136 25.2501 6.23956 25.25 6.03445C25.25 6.02291 25.25 6.01143 25.25 6V5.25Z" stroke="#2C2E43" stroke-width="1.5"/>
<rect x="11.5" y="4.5" width="19" height="33" rx="1" stroke="#2C2E43" stroke-width="2"/>
<circle cx="21" cy="32.4545" r="1.15909" stroke="#2C2E43" stroke-width="1.5"/>
</svg>
