<svg width="44" height="44" viewBox="0 0 44 44" fill="none" xmlns="http://www.w3.org/2000/svg">
<path d="M6.5 14.6666C6.5 12.9098 6.50212 11.6929 6.62533 10.7765C6.74466 9.88891 6.96085 9.4345 7.28105 9.1143C7.60125 8.7941 8.05566 8.57791 8.94325 8.45858C9.85961 8.33538 11.0766 8.33325 12.8333 8.33325H31.1667C32.9234 8.33325 34.1404 8.33538 35.0567 8.45858C35.9443 8.57791 36.3987 8.7941 36.719 9.1143C37.0392 9.4345 37.2553 9.88891 37.3747 10.7765C37.4979 11.6929 37.5 12.9098 37.5 14.6666V30.1666H6.5V14.6666Z" stroke="#2C2E43" stroke-width="2"/>
<path d="M6.72222 30.1667C5.49492 30.1667 4.5 31.1617 4.5 32.389C4.5 34.2913 6.04213 35.8334 7.94444 35.8334H36.0556C37.9579 35.8334 39.5 34.2913 39.5 32.389C39.5 31.1617 38.5051 30.1667 37.2778 30.1667H6.72222Z" stroke="#2C2E43" stroke-width="2"/>
</svg>
