<svg width="28" height="28" viewBox="0 0 28 28" fill="none" xmlns="http://www.w3.org/2000/svg">
<path d="M8.80544 25.3758C19.3715 25.3758 25.1507 16.6219 25.1507 9.0305C25.1507 8.78186 25.1507 8.53435 25.1339 8.28795C26.2582 7.47473 27.2287 6.46781 28 5.31435C26.9516 5.77915 25.8394 6.08383 24.7005 6.21818C25.8998 5.50032 26.7973 4.3711 27.2261 3.04074C26.0984 3.70995 24.8647 4.18154 23.5782 4.43515C22.7121 3.51415 21.5666 2.90429 20.3189 2.69994C19.0712 2.49559 17.791 2.70815 16.6763 3.30471C15.5616 3.90127 14.6746 4.84858 14.1525 6.00005C13.6305 7.15152 13.5025 8.44295 13.7883 9.6745C11.5044 9.55994 9.27005 8.96638 7.23036 7.93235C5.19068 6.89833 3.39122 5.44695 1.9488 3.67242C1.21418 4.93709 0.989184 6.43419 1.31962 7.85892C1.65005 9.28364 2.51107 10.5289 3.72736 11.3411C2.8131 11.3143 1.91876 11.0676 1.12 10.622V10.6948C1.12036 12.0211 1.57949 13.3065 2.41952 14.3329C3.25954 15.3593 4.42874 16.0636 5.7288 16.3262C4.88306 16.5569 3.99569 16.5906 3.13488 16.4247C3.50212 17.5661 4.21683 18.5642 5.17911 19.2795C6.14139 19.9948 7.30313 20.3915 8.50192 20.4142C7.31084 21.3504 5.94687 22.0426 4.48802 22.4512C3.02917 22.8598 1.50408 22.9767 0 22.7953C2.62714 24.4812 5.68391 25.3754 8.80544 25.3713" fill="#1DA1F2"/>
</svg>
